<svg fill="white" id="Layer_1" data-name="Layer 1" xmlns="http://www.w3.org/2000/svg" viewBox="0 0 229.84 227.9"><title>Artboard 1</title><path d="M115,20.52c30.45,0,34.06.13,46,.67,11.13.49,17.14,2.36,21.15,3.92a35.25,35.25,0,0,1,13.09,8.5,35.72,35.72,0,0,1,8.55,13.09c1.56,4,3.43,10.06,3.92,21.15.53,12,.67,15.63.67,46s-.13,34.06-.67,46c-.49,11.13-2.36,17.14-3.92,21.15a35.25,35.25,0,0,1-8.5,13.09,35.72,35.72,0,0,1-13.09,8.55c-4,1.56-10.06,3.43-21.15,3.92-12,.53-15.63.67-46,.67s-34.06-.13-46-.67c-11.13-.49-17.14-2.36-21.15-3.92a35.25,35.25,0,0,1-13.09-8.5,35.72,35.72,0,0,1-8.55-13.09c-1.56-4-3.43-10.06-3.92-21.15-.53-12-.67-15.63-.67-46s.13-34.06.67-46c.49-11.13,2.36-17.14,3.92-21.15a35.25,35.25,0,0,1,8.5-13.09,35.72,35.72,0,0,1,13.09-8.55c4-1.56,10.06-3.43,21.15-3.92,12-.53,15.58-.67,46-.67M115,0C84,0,80.17.13,68,.67S47.58,3.16,40.37,6A55.63,55.63,0,0,0,20.16,19.14,55.84,55.84,0,0,0,7,39.31C4.18,46.57,2.22,54.85,1.68,67S1,83,1,114s.13,34.81.67,47S4.18,181.38,7,188.59A55.63,55.63,0,0,0,20.16,208.8a55.71,55.71,0,0,0,20.17,13.13c7.26,2.8,15.54,4.76,27.65,5.3s16,.67,47,.67,34.81-.13,47-.67,20.43-2.49,27.65-5.3a58.23,58.23,0,0,0,33.3-33.3c2.8-7.26,4.76-15.54,5.3-27.65s.67-16,.67-47-.13-34.81-.67-47-2.49-20.43-5.3-27.65a53.38,53.38,0,0,0-13-20.26A55.71,55.71,0,0,0,189.65,6c-7.26-2.8-15.54-4.76-27.65-5.3S145.93,0,115,0Z"/><path d="M115,55.43A58.54,58.54,0,1,0,173.53,114,58.56,58.56,0,0,0,115,55.43Zm0,96.52a38,38,0,1,1,38-38A38,38,0,0,1,115,151.95Z"/><circle cx="175.85" cy="53.11" r="13.67"/></svg>