<svg width="12" height="12" viewBox="0 0 12 12" fill="none" xmlns="http://www.w3.org/2000/svg">
<path d="M6.07747 11.2662C6.04648 11.2662 6.01618 11.2662 5.98588 11.2638C5.96647 11.2638 5.94638 11.2662 5.92595 11.2662C5.21469 11.2662 4.75844 10.9434 4.31717 10.6316C4.01074 10.4164 3.72474 10.2131 3.38596 10.1549C3.22437 10.1279 3.06085 10.1141 2.89702 10.1137C2.66918 10.1157 2.44215 10.1411 2.21946 10.1893C2.13642 10.2096 2.05178 10.2227 1.96649 10.2284C1.89839 10.2284 1.82348 10.2134 1.79114 10.1031C1.76288 10.0075 1.74279 9.9145 1.72304 9.82495C1.67265 9.59411 1.6369 9.45042 1.5402 9.43715C0.412524 9.26282 0.0894065 9.0255 0.0175647 8.85833C0.00767735 8.83544 0.00180338 8.81102 0.000200132 8.78614C-0.00155822 8.75485 0.00831819 8.72401 0.0279292 8.69956C0.0475403 8.67511 0.0755005 8.65877 0.106431 8.6537C1.84017 8.36803 2.61749 6.59616 2.64983 6.52092L2.65256 6.51479C2.75879 6.2996 2.77956 6.11302 2.71452 5.96014C2.59672 5.67788 2.20755 5.55463 1.9498 5.47325C1.88681 5.4535 1.82723 5.43444 1.77956 5.41605C1.26713 5.21176 1.22423 5.00543 1.24432 4.89954C1.27837 4.71908 1.52011 4.5931 1.71521 4.5931C1.76345 4.59204 1.81133 4.60157 1.85549 4.62102C2.08599 4.72896 2.29403 4.78378 2.47312 4.78378C2.72099 4.78378 2.82893 4.67959 2.84221 4.66597C2.83608 4.5485 2.82825 4.42763 2.82007 4.29961C2.76696 3.48177 2.70431 2.46032 2.96376 1.8815C3.74108 0.137555 5.38867 0.00204289 5.8759 0.00204289L6.08939 0H6.11833C6.60624 0 8.25792 0.136193 9.03558 1.87912C9.29502 2.46066 9.23067 3.47939 9.17892 4.29927L9.17688 4.33332C9.16973 4.44738 9.16292 4.55838 9.15713 4.66427C9.16939 4.67686 9.26915 4.77254 9.49353 4.78139C9.66377 4.77492 9.86023 4.72045 10.0758 4.61966C10.1329 4.59568 10.1946 4.58407 10.2565 4.58561C10.3278 4.58535 10.3985 4.59888 10.4646 4.62545H10.4683C10.6423 4.68708 10.7564 4.80931 10.7591 4.93665C10.7615 5.05684 10.6696 5.2373 10.2198 5.41333C10.1731 5.43171 10.1135 5.45044 10.0495 5.47053C9.79247 5.55224 9.40262 5.67482 9.28549 5.95571C9.22046 6.10859 9.24123 6.2962 9.34746 6.51036C9.34808 6.51252 9.349 6.51458 9.35018 6.51649C9.38423 6.59174 10.1592 8.36326 11.8936 8.64893C11.9245 8.65408 11.9524 8.67043 11.972 8.69486C11.9916 8.7193 12.0015 8.7501 11.9998 8.78138C11.9982 8.8064 11.9922 8.83096 11.9821 8.8539C11.9106 9.02108 11.5882 9.25839 10.4598 9.43272C10.3675 9.44702 10.3318 9.56687 10.277 9.81883C10.2569 9.91042 10.2368 10.0006 10.2089 10.0953C10.2016 10.1317 10.181 10.1642 10.1513 10.1865C10.1215 10.2087 10.0845 10.2192 10.0475 10.2158H10.0335C9.94853 10.2128 9.86397 10.2021 9.78089 10.1838C9.55805 10.137 9.33103 10.113 9.10333 10.112C8.93939 10.1124 8.77576 10.1261 8.61406 10.1532C8.27562 10.2097 7.98825 10.4126 7.68386 10.6275C7.24498 10.9445 6.78874 11.2662 6.07747 11.2662Z" fill="white"/>
</svg>
