<?xml version="1.0" encoding="UTF-8"?>
<!-- Generator: Adobe Illustrator 19.2.1, SVG Export Plug-In . SVG Version: 6.00 Build 0)  -->
<!DOCTYPE svg PUBLIC "-//W3C//DTD SVG 1.1//EN" "http://www.w3.org/Graphics/SVG/1.1/DTD/svg11.dtd">
<svg version="1.1" id="Layer_1" xmlns="http://www.w3.org/2000/svg" xmlns:xlink="http://www.w3.org/1999/xlink" x="0px" y="0px" width="266.9px" height="266.9px" viewBox="0 0 266.9 266.9" style="enable-background:new 0 0 266.9 266.9;" xml:space="preserve">
<title>facebook</title>
<path style="fill:white" d="M252.2,0H14.7C6.6,0,0,6.6,0,14.7v237.4c0,8.1,6.6,14.7,14.7,14.7h127.8V163.6h-34.8v-40.3h34.8V93.6  c0-34.5,21.1-53.2,51.8-53.2c10.4,0,20.8,0.5,31.1,1.6v36h-21.3c-16.8,0-20,8-20,19.6v25.7H224l-5.2,40.3h-34.7v103.3h68  c8.1,0,14.7-6.6,14.7-14.7V14.7C266.9,6.6,260.3,0,252.2,0z"/>
</svg>